Patient4_TMGait_0pt7_01_left_22_EMG.mot
version=1
nRows=37
nColumns=33
inDegrees=no
endheader
time	1LAddLong	2LGlutMax	3LGlutMed	4LIliopsoas	5LSemiMemb	6LBicFemLong	7LRecFem	8LVastMed	9LVastLat	10LGasMed	11LTibAnt	12lTibPost	13LPeroneusLong	14LSol	15LExtDigLong	16LFlexDigLong	17RAddLong	18RGlutMax	19RGlutMed	20RIliopsoas	21RSemiMemb	22RBicFemLong	23RRecFem	24RVastMed	25RVastLat	26RGasMed	27RTibAnt	28RTibPost	29RPeroneusLong	30RSol	31RExtDigLong	32RFlexDigLong
26.115	0.031738	-0.1329	-0.2182	-0.011902	0.030518	-0.022125	-0.17639	0.006104	0.024872	-0.053406	0.014038	-0.001526	-0.005493	-0.19058	0.10223	-0.001526	-0.042267	-0.33707	0.27863	0.24033	-0.00061	-0.67535	-0.24216	0.033722	0.85785	-0.004272	0.071869	-0.001678	0.74158	-0.029755	0.001678	0.000153
26.116	-0.074768	-0.14175	-0.17059	-0.00061	0.023804	-0.063782	-0.17212	-0.001984	0.024567	-0.007019	0.011292	0.015564	-0.022125	-0.19104	0.02182	-0.014038	0.05188	-0.37674	0.35324	0.1059	0.46371	-1.0527	-0.15793	-0.32806	0.93292	-0.007324	0.049438	-0.004578	0.23758	-0.053558	0.005646	0.003815
26.117	0.032806	-0.10757	-0.14557	0.001678	0.016327	-0.099182	-0.17441	0.001831	0.040588	0.21545	0.033569	0.010986	-0.053864	-0.23926	0.008087	-0.016174	0.069275	-0.44144	0.29129	0.023041	0.73624	-1.1597	-0.053253	-0.37903	0.90515	-0.015869	-0.095673	-0.00061	0.69839	-0.080261	0.003052	0.007629
26.118	-0.00946	-0.1265	-0.12634	0.03006	0.012054	-0.079651	-0.18173	0.001831	0.036926	-0.23636	0.037079	0.004425	-0.026703	-0.27313	-0.002441	0.001526	0.067749	-0.48447	0.34851	-0.044556	0.55679	-1.2619	-0.08194	-0.401	0.77011	-0.013428	-0.10651	-0.004425	-0.048676	-0.049286	0.00061	-0.007019
26.119	-0.000763	-0.18356	-0.10742	0.037994	0.005951	-0.045624	-0.17853	-0.003662	0.021057	-0.11643	0.036926	0.007477	0.018463	-0.19043	-0.02182	0.015564	0.053253	-0.55313	0.28122	-0.064392	0.62103	-1.2527	-0.009155	-0.55695	0.29968	-0.001831	0.063324	-0.005035	-0.4039	-0.05249	0.003052	-0.003204
26.12	0.008392	-0.15884	-0.072632	0.008698	0.000916	-0.022888	-0.17868	-0.000305	0.023346	-0.00946	0.056458	0.010681	-0.065765	-0.003052	-0.004578	0.017853	0.073242	-0.53558	-0.17716	-0.050507	0.42313	-1.1839	0.045319	-0.49179	-0.14435	0.002594	0.11887	-0.007477	-0.066071	-0.049133	0.00351	-0.002747
26.121	-0.00946	-0.1683	-0.037384	-0.011292	0.004272	-0.050354	-0.21591	-0.000458	0.01358	-0.17685	0.059204	0.007629	-0.048218	0.24597	0.017548	0.001984	0.062561	-0.50812	-0.15762	-0.041199	0.20828	-0.76691	0.065002	-0.15625	-0.55374	-0.007172	0.30868	-0.002899	-0.4512	-0.015106	0.00473	-0.010681
26.122	-0.001526	-0.20386	-0.004578	-0.010376	0.019531	-0.020294	-0.2092	0.003052	-0.004272	-0.13168	0.049591	0.000153	0.003815	0.33966	0.012512	0.00473	0.071411	-0.54413	-0.23972	-0.11871	0.28076	-0.46112	0.080109	0.019073	-0.83725	-0.013275	0.38971	-0.006409	-0.81329	0.00351	0.002136	-0.025635
26.123	0.000916	-0.21835	0.025177	-0.00946	0.029907	0.031891	-0.19989	-0.000916	-0.015869	-0.065765	0.0354	0.005341	-0.010529	0.31448	0.006866	-0.003967	0.055847	-0.55252	-0.015869	-0.078125	-0.13229	-0.44403	0.038605	0.084076	-0.79651	-0.007935	0.46707	-0.000916	-0.81161	-0.060425	0.000153	-0.0177
26.124	-0.009003	-0.23575	0.05249	-0.005951	0.014954	0.041656	-0.21851	0.005951	-0.039978	-0.033875	0.031281	0.015869	-0.05127	0.27084	-0.035706	0.001831	0.067749	-0.55237	-0.22919	-0.00885	0.094757	-0.3537	-0.1004	-0.037537	-0.62988	-0.012512	0.29938	0.005951	1.3042	-0.079803	0.005493	-0.018158
26.125	0.003967	-0.22797	0.090637	0.000763	-0.001984	0.040894	-0.21072	0.005035	-0.050659	-0.084534	0.019226	0.015869	-0.045166	0.21362	-0.04303	-0.000916	0.11261	-0.48416	-0.052795	0.023041	0.53833	0.36072	-0.37933	-0.17349	-0.68924	-0.009003	0.012665	-0.000763	1.0666	-0.085754	0.002441	-0.014648
26.126	-0.024261	-0.2092	0.13168	-0.017395	-0.006256	0.057983	-0.18906	-0.001678	-0.043945	-0.14923	0.014801	0.000153	-0.042725	0.15884	-0.055084	-0.002136	0.10101	-0.49942	0.029449	-0.049286	0.48752	1.048	-0.44037	-0.04425	-0.68298	-0.010071	-0.40131	-0.002136	0.10773	-0.08316	0.002136	-0.019226
26.127	-0.008392	-0.18509	0.1474	-0.01709	0	0.051117	-0.2095	0.001526	-0.036469	-0.11932	0.006104	0.007935	-0.046082	0.11307	-0.060577	0.004425	0.065002	-0.36026	0.28351	-0.14816	0.59067	0.88135	-0.26962	0.16724	-0.36224	-0.012817	-0.24674	-0.000305	-0.76172	-0.10178	0.000763	-0.014801
26.128	-0.01297	-0.19012	0.17654	0.001221	0.000916	0.030212	-0.20844	0.011292	-0.02533	0.16068	0.006409	-0.024872	-0.021515	0.041046	-0.051422	-0.005035	0.032196	-0.25421	-0.20981	-0.19989	0.54321	0.61111	-0.13519	0.3421	-0.005798	-0.005493	-0.20416	-0.002747	-1.5361	-0.20416	0.001831	-0.006256
26.129	-0.005646	-0.20721	0.20111	0.024109	0.007782	0.011139	-0.20187	0.001221	-0.028076	0.5304	-0.026093	-0.002747	0.009003	-0.003052	-0.038452	0.000153	-0.012054	-0.22186	0.04364	-0.057831	0.30868	0.46036	-0.018311	0.31021	0.027618	-0.002136	-0.11887	-0.007172	-0.3067	-0.20767	0	-0.005951
26.13	-0.013428	-0.20889	0.20966	0.00412	0.014648	0.022888	-0.21484	0.005188	-0.016022	0.16998	-0.024109	-0.016937	0.028992	-0.021973	-0.04303	-0.011139	-0.14404	-0.1738	0.1976	0.096283	0.08606	0.34286	-0.24963	0.36575	-0.053101	-0.002441	-0.47455	-0.007019	0.48752	-0.19089	0.002747	-0.011292
26.131	-0.007019	-0.21912	0.2327	-0.014801	0.011444	0.024567	-0.22964	0.007477	-0.023651	0.074005	-0.009308	-0.015869	0.058136	-0.005951	-0.0354	-0.005035	-0.17716	-0.16037	-0.5011	0.1796	0.50812	0.14786	-0.2327	0.56992	0.090942	-0.007629	-0.81085	-0.007629	0.67078	-0.15488	0.001373	-0.002594
26.132	0.001068	-0.18173	0.23636	-0.02533	0.007935	0.010223	-0.22736	0.003662	-0.028534	-0.10468	0.000458	-0.005646	0.047913	0.023651	-0.019379	0.00351	-0.16174	-0.0914	-0.345	0.094299	0.62103	-0.095825	0.090637	0.51422	0.29984	-0.007172	-0.4332	-0.010529	0.91263	-0.1239	-0.006104	-0.002441
26.133	-0.005493	-0.20401	0.23636	-0.007477	0.011597	0.031128	-0.26489	0	-0.02655	-0.17029	0.006866	0.026398	0.010071	0.058441	-0.011139	-0.001373	-0.16388	-0.086975	-0.46967	0.058899	0.34851	-0.345	0.25116	0.25787	0.041504	-0.012817	0.16388	-0.011292	0.38269	-0.082092	-0.000305	-0.008698
26.134	0.001526	-0.1387	0.2533	0.006561	0.011139	0.069885	-0.27756	0.006104	-0.034027	-0.089417	0.018311	0.023651	0.014496	0.13702	-0.011902	0.001526	-0.10452	-0.04425	0.012054	0.028381	0.009155	-0.52094	0.392	-0.090179	-0.29404	-0.016785	0.50171	-0.012207	0.032043	-0.034943	0.000458	-0.00946
26.135	0.006409	-0.1358	0.29297	0.009155	0.008545	0.0354	-0.28015	0.004272	-0.040588	-0.083008	0.013885	0.006104	-0.00412	0.19775	-0.004578	-0.003815	-0.06012	-0.090637	0.093994	-0.019379	-0.17975	-0.44968	0.76523	-0.13947	-0.56671	-0.015869	0.62225	-0.015564	-0.38254	-0.009766	-0.001678	-0.014648
26.136	0.012665	-0.11932	0.3157	0.014038	0.012207	-0.038757	-0.31586	-0.001526	-0.030823	-0.05661	0.016937	0.000916	0.010834	0.18951	-0.004425	0.000458	0.030212	-0.1181	0.5751	-0.044098	-0.3273	-0.35538	0.99243	-0.66605	-0.54642	-0.017395	0.26276	-0.016327	0.024414	0.000305	-0.002441	-0.01297
26.137	0.006561	-0.11261	0.31158	0.003662	0.004883	-0.045929	-0.30685	-0.000458	-0.03006	-0.005493	0.055237	-0.016479	0.021667	0.19455	-0.003357	-0.011902	0.003662	-0.083618	0.094147	0.008087	-0.26428	-0.19913	0.60547	-0.82748	-0.19959	-0.014191	-0.49652	-0.015717	0.29465	0.060883	-0.000916	0.001831
26.138	0.007019	-0.085297	0.31204	-0.001221	0.004883	-0.024414	-0.28351	-0.002289	-0.033264	0.098724	0.00061	-0.011139	0.000153	0.18799	-0.004272	-0.005951	-0.033875	-0.13412	-0.18066	-0.009613	-0.02243	-0.22339	-0.35751	-0.75089	0.60013	-0.009766	0.13641	-0.009308	0.34317	-0.059052	0.000763	-0.010071
26.139	0.006866	-0.06073	0.36499	-0.017242	-0.002136	-0.028992	-0.27069	-0.002136	-0.035248	0.4602	-0.000305	-0.011902	-0.04776	0.014648	-0.008087	-0.01358	0.040436	-0.059967	-0.24139	-0.085907	-0.16419	-0.17212	-0.97198	-0.681	0.7431	-0.003967	0.069733	-0.000153	0.35706	-0.18631	-0.003052	-0.017242
26.14	0.007477	-0.059662	0.37445	-0.039673	0.010681	-0.060577	-0.27237	0.001373	-0.037842	0.98038	0.014954	-0.010071	-0.039368	-0.083618	0.001373	-0.018463	0.068665	-0.053864	-0.21515	-0.14603	-0.27985	-0.013123	-1.107	-0.61768	0.34821	0.001221	-0.97809	-0.002441	0.14481	-0.16647	-0.001678	-0.011292
26.141	0.001831	0.029449	0.36163	-0.038452	0.010071	-0.015259	-0.25345	-0.008392	-0.057373	1.2506	0.013123	-0.000458	-0.00351	-0.16037	0.004578	-0.011444	0.075836	0.05722	0.24918	-0.16403	-0.046844	0.03418	-1.1324	-0.027008	-0.14404	-0.006714	-0.9021	-0.00824	-0.088654	-0.084229	0.002747	-0.00473
26.142	-0.001526	0.055542	0.36819	-0.009003	0.005188	0.03418	-0.22018	0.002899	-0.065308	0.61768	0.027161	0.002594	0.013733	-0.1619	0.014038	-0.012054	-0.02655	0.067444	-0.37796	-0.10895	0.063324	0.057983	-1.364	0.41168	-0.22858	-0.006104	-0.49332	0.001221	0.32989	-0.092163	0.001373	-0.017395
26.143	-0.007629	0.10513	0.38971	0.005341	-0.002441	0.017242	-0.23086	-0.000153	-0.078583	0.048523	0.016022	-0.005646	0.009003	-0.072174	0.008545	-0.007935	-0.012665	0.022736	-0.80292	-0.14404	0.25925	-0.033417	-1.2469	0.61264	-0.17944	-0.003052	-0.52017	-0.005341	0.22598	-0.045471	0.011902	-0.020142
26.144	-0.007477	0.15366	0.41046	0.039825	-0.022583	-0.027313	-0.21591	0.005035	-0.086365	0.31815	0.016174	-0.018005	-0.014496	0.027161	0.001068	-0.011902	0.019531	-0.13412	-0.6282	-0.11429	0.23529	-0.036926	-0.85312	0.58075	-0.23773	-0.002594	-0.35843	-0.005188	-0.15305	0.093689	0.000763	-0.020142
26.145	-0.010834	0.21698	0.39261	0.022125	-0.016327	-0.016937	-0.20859	0.004578	-0.10162	0.27969	0.02182	-0.011444	-0.11215	0.11444	0.00351	-0.008698	-0.001678	-0.22461	-0.2214	-0.10178	-0.14893	0.058136	-0.56656	0.60181	-0.21316	-0.008698	-0.095367	-0.002136	-0.019684	0.25665	0.001984	-0.018311
26.146	-0.011444	0.27374	0.40543	-0.004578	-0.022583	-0.003357	-0.21683	0.00473	-0.095825	-0.1091	0.01358	-0.002747	-0.061798	0.091095	0.019226	0.00824	-0.051575	-0.41107	0.25269	0.008087	-0.27466	0.10422	-0.38773	0.57602	-0.063324	-0.010834	0.19165	-0.008698	0.1268	0.33661	-0.001678	-0.02121
26.147	-0.003662	0.35782	0.40787	-0.003052	-0.0177	0.00824	-0.24155	0	-0.096741	-0.5658	0.017395	-0.005188	-0.041809	0.07309	0.015411	-0.000305	-0.039978	-0.47028	0.31357	0.13107	0.039063	0.057526	-0.38071	0.36529	0.070801	-0.011749	0.30258	-0.000916	0.12039	0.24017	-0.002289	-0.014343
26.148	0.000458	0.40726	0.40558	0	-0.024872	0.025787	-0.25803	0.001526	-0.087891	-0.20065	0.026398	-0.009918	-0.046844	0.063629	0.002594	-0.010529	-0.020294	-0.62683	0.75363	0.097351	0.24078	0.09903	-0.3244	0.58838	0.024261	-0.011139	0.004272	0.001373	0.065002	0.22263	-0.003052	-0.011902
26.149	0.00061	0.42587	0.38803	0.017853	-0.015259	0.041351	-0.24612	-0.001831	-0.083313	-0.086365	0.012207	-0.017853	0.053253	0.069122	0.001831	-0.50217	-0.044861	-0.65659	-0.33981	0.034943	0.30579	0.33356	-0.45242	1.2189	0.076752	-0.00351	-0.15854	-0.00473	0.033569	0.16251	-0.001831	-0.012665
26.15	-0.006714	0.47134	0.36835	0.003967	-0.007935	0.103	-0.24628	-0.003357	-0.087585	-0.20599	0.009613	-0.005798	0.10071	0.11993	-0.005951	0.094147	-0.045471	-0.78644	-0.35217	0.057831	0.48553	0.18417	-0.35324	1.1647	0.12161	-0.007019	-0.24994	-0.001526	-0.034943	0.11871	-0.005493	-0.004425
26.151	0.011444	0.49911	0.35172	0.018463	-0.010986	0.11932	-0.25284	0.003815	-0.090637	0.41763	0.002441	0.01358	0.13672	0.14755	-0.007782	0.746	0.030518	-0.793	-0.51422	0.12558	0.55679	-0.022736	-0.098724	0.58258	0.00351	-0.014496	-0.17273	0.000763	-0.0354	0.080719	-0.007477	-0.001678
